<svg xmlns="http://www.w3.org/2000/svg" width="1600" height="1000" viewBox="0 0 1600 1000" role="img" aria-label="Dark background">
  <defs>
    <linearGradient id="bg" x1="0" y1="0" x2="1" y2="1">
      <stop offset="0" stop-color="#0b1220"/>
      <stop offset="0.55" stop-color="#0a0f1a"/>
      <stop offset="1" stop-color="#05070d"/>
    </linearGradient>
    <radialGradient id="glow" cx="65%" cy="35%" r="70%">
      <stop offset="0" stop-color="#60a5fa" stop-opacity="0.14"/>
      <stop offset="0.45" stop-color="#60a5fa" stop-opacity="0.06"/>
      <stop offset="1" stop-color="#60a5fa" stop-opacity="0"/>
    </radialGradient>
  </defs>
  <rect width="1600" height="1000" fill="url(#bg)"/>
  <rect width="1600" height="1000" fill="url(#glow)"/>
  <path d="M1120 80c160 90 260 220 300 390s-20 320-180 450-320 150-480 60-260-220-300-390 20-320 180-450 320-150 480-60Z"
        fill="#ffffff" fill-opacity="0.04"/>
  <path d="M1240 150c120 70 200 170 236 300s-16 246-140 346-250 116-370 46-200-170-236-300 16-246 140-346 250-116 370-46Z"
        fill="#ffffff" fill-opacity="0.03"/>
  <path d="M1040 140c-180 120-320 260-420 420" fill="none" stroke="#ffffff" stroke-opacity="0.08" stroke-dasharray="10 12" stroke-width="3"/>
</svg>
